#!OML:ASF Y:\EmotionMaleHayes\Project 1\Capture day 1\Session 1\Male1.ASF
:FULLY-SPECIFIED
:DEGREES
1725
root -11.4561 16.8203 18.1094 -148.779 291.17 -573.751
lowerback 5.8845 1.29312 -14.111
upperback 6.84314 0.857168 -4.44286
thorax 3.81809 -0.305135 3.13291
lowerneck -18.2177 -5.45506 -5.28764
upperneck 27.362 -8.89331 6.79336
head 12.692 -3.82498 1.97798
rclavicle 9.93923e-015 -9.54166e-015
rhumerus -31.5635 10.5539 -82.7005
rradius 34.1209
rwrist -1.10576
rhand -9.39717 -32.7701
rfingers 7.12502
rthumb 16.5641 -62.0831
lclavicle 9.93923e-015 -9.54166e-015
lhumerus -12.9594 -14.4892 82.8206
lradius 28.487
lwrist -4.48578
lhand -20.5291 -26.4355
lfingers 7.12502
lthumb 5.82902 3.46437
rfemur -25.3166 -10.2595 12.6181
rtibia 32.8962
rfoot -16.1925 -9.61728
rtoes 20.573
lfemur 11.3029 4.68692 -31.5332
ltibia 10.3037
lfoot -17.5154 6.12486
ltoes -22.987
1726
root -11.5827 16.8029 18.1089 -148.879 291.347 -573.388
lowerback 5.67989 1.15307 -14.0156
upperback 6.72653 0.718736 -4.28518
thorax 3.82705 -0.360284 3.25571
lowerneck -17.9997 -5.42842 -5.43945
upperneck 26.9901 -8.88617 7.14586
head 12.5253 -3.803 2.14174
rclavicle 1.98785e-016 1.04163e-013
rhumerus -31.4435 10.889 -82.5623
rradius 33.6917
rwrist -1.99037
rhand -10.1609 -32.3353
rfingers 7.12502
rthumb 15.8287 -61.7082
lclavicle 1.98785e-016 1.04163e-013
lhumerus -13.0662 -14.4679 82.8584
lradius 29.1713
lwrist -3.59856
lhand -20.1807 -26.4895
lfingers 7.12502
lthumb 6.16536 3.40077
rfemur -25.3925 -10.2512 13.0172
rtibia 29.9691
rfoot -16.1667 -9.94204
rtoes 19.41
lfemur 11.634 4.9836 -31.5252
ltibia 10.0906
lfoot -17.7188 5.75703
ltoes -22.9123
1727
root -11.7208 16.7813 18.104 -147.695 291.811 -574.512
lowerback 5.46392 1.072 -14.5025
upperback 6.63801 0.62989 -4.28089
thorax 3.87586 -0.423773 3.52669
lowerneck -18.1261 -5.51136 -5.51874
upperneck 26.9939 -9.0215 7.27738
head 12.5758 -3.85098 2.17872
rclavicle -2.10712e-014 2.8625e-014
rhumerus -31.6451 10.7504 -82.3008
rradius 33.837
rwrist -2.41699
rhand -10.5838 -32.3863
rfingers 7.12502
rthumb 15.4214 -61.7911
lclavicle -2.10712e-014 2.8625e-014
lhumerus -13.159 -14.7416 82.9502
lradius 30.1478
lwrist -1.40011
lhand -18.7231 -25.5958
lfingers 7.12502
lthumb 7.57244 4.24867
rfemur -25.215 -10.5201 12.6694
rtibia 26.9141
rfoot -15.8024 -10.1903
rtoes 18.1295
lfemur 12.0967 5.51662 -32.1648
ltibia 9.90352
lfoot -17.8572 5.17667
ltoes -22.9681
1728
root -11.8614 16.7593 18.0981 -146.26 292.305 -575.854
lowerback 5.21583 1.00063 -15.0198
upperback 6.53204 0.55867 -4.32178
thorax 3.92331 -0.478346 3.76505
lowerneck -18.112 -5.59826 -5.65184
upperneck 26.8511 -9.15685 7.48569
head 12.5464 -3.89995 2.2561
rclavicle -2.17669e-014 1.47101e-014
rhumerus -31.937 10.0562 -81.8791
rradius 34.0619
rwrist -2.08002
rhand -10.6705 -32.459
rfingers 7.12502
rthumb 15.3379 -61.8702
lclavicle -2.17669e-014 1.47101e-014
lhumerus -13.2731 -15.3833 83.0964
lradius 30.5658
lwrist -0.378005
lhand -19.3385 -25.876
lfingers 7.12502
lthumb 6.97836 3.98897
rfemur -25.0669 -10.5504 12.0989
rtibia 23.9284
rfoot -15.3628 -10.3889
rtoes 17.7336
lfemur 12.7084 5.79209 -33.027
ltibia 9.31358
lfoot -17.9469 4.89137
ltoes -23.2821
1729
root -11.9853 16.7323 18.0891 -145.822 292.539 -576.003
lowerback 5.01891 0.907903 -15.1066
upperback 6.38598 0.470971 -4.2187
thorax 3.89364 -0.512332 3.92608
lowerneck -18.0541 -5.6121 -5.70657
upperneck 26.6288 -9.18824 7.65666
head 12.4615 -3.90141 2.32446
rclavicle 3.77691e-014 8.0309e-014
rhumerus -32.0994 9.06035 -81.405
rradius 34.1409
rwrist -1.59814
rhand -10.7451 -32.4295
rfingers 7.12502
rthumb 15.2661 -61.8461
lclavicle 3.77691e-014 8.0309e-014
lhumerus -13.3213 -15.5126 83.2089
lradius 31.0063
lwrist 0.26302
lhand -19.4192 -25.9757
lfingers 7.12502
lthumb 6.90049 3.89187
rfemur -25.1626 -10.1434 12.1123
rtibia 21.1597
rfoot -15.1321 -10.6054
rtoes 16.8382
lfemur 12.8507 6.06027 -33.1896
ltibia 9.23624
lfoot -18.1915 4.58724
ltoes -23.1765
1730
root -12.1014 16.7018 18.073 -145.823 292.651 -575.668
lowerback 4.80767 0.819298 -15.0715
upperback 6.28498 0.401482 -4.04696
thorax 3.91601 -0.537804 4.09302
lowerneck -18.178 -5.74484 -5.84492
upperneck 26.447 -9.41232 7.98966
head 12.462 -3.96988 2.431
rclavicle 3.15074e-014 2.94201e-014
rhumerus -32.0083 8.16302 -81.0174
rradius 34.0384
rwrist -1.37388
rhand -10.8448 -32.3918
rfingers 7.12502
rthumb 15.17 -61.8158
lclavicle 3.15074e-014 2.94201e-014
lhumerus -13.229 -15.6174 83.2492
lradius 31.366
lwrist 0.800492
lhand -19.5159 -26.0851
lfingers 7.12502
lthumb 6.80713 3.78544
rfemur -25.295 -9.46931 12.3701
rtibia 18.4367
rfoot -14.9751 -10.9155
rtoes 15.8853
lfemur 12.9681 6.33631 -33.0251
ltibia 9.20598
lfoot -18.5222 4.15816
ltoes -22.4396
